<?xml version="1.0" encoding="UTF-8"?>
<svg xmlns="http://www.w3.org/2000/svg" xmlns:i="http://ns.adobe.com/AdobeIllustrator/10.0/" id="Ebene_1" data-name="Ebene 1" version="1.1" viewBox="0 0 500 500">
  <defs>
    <style>
      .cls-1 {
        fill: #f18b1f;
      }

      .cls-1, .cls-2, .cls-3 {
        stroke-width: 0px;
      }

      .cls-2 {
        fill: #9d9d9c;
      }

      .cls-3 {
        fill: #fff;
      }
    </style>
  </defs>
  <path class="cls-3" d="M363.9,458.8h-105.1c-4.3,0-7.8-3.5-7.8-7.8s3.5-7.8,7.8-7.8h105.1c7.4,0,13.5-6.1,13.5-13.5V161.2c0-7.4-6.1-13.5-13.5-13.5H95.6c-7.4,0-13.5,6.1-13.5,13.5v97c0,4.3-3.5,7.8-7.8,7.8s-7.8-3.5-7.8-7.8v-97c0-16.1,13.1-29.2,29.2-29.2h268.4c16.1,0,29.2,13.1,29.2,29.2v268.4c0,16.1-13.1,29.2-29.2,29.2Z"></path>
  <path class="cls-2" d="M314.6,355.1c-3.8-3.6-7.8-5.9-11.8-7.1,3.5-3.5,6.5-6.4,8.7-8.5,18.8-18.8,9.6-40,2.1-48.6-.1-.1-.2-.3-.4-.4-4.6-4.6-9.7-6.8-14.8-7.6,7.4-9.1,9.7-19.7,6.2-30.4-2.7-8.5-8.1-14.1-8.7-14.8-15.9-15.9-37.4-4.6-46.6,3.6-.1,0-.2.2-.3.3l-5.3,5.3c-1.2-5-3.8-10-8.6-14.8-16.1-16.1-37.6-3.7-46.8,5.2l-90.4,90.4v-40.9c0-23.5-13.1-38.1-34.3-38.1s-16.6,3-22.2,8.8c-10.4,10.7-10.5,27-10.5,29.4v108.5c0,4.3,3.5,7.8,7.8,7.8s7.8-3.5,7.8-7.8v-108.8c0-3.3.9-13,6.1-18.2,2.7-2.7,6.2-4,10.9-4,18.6,0,18.6,16.9,18.6,22.4v59.8c0,3.2,1.9,6,4.8,7.2,2.9,1.2,6.3.5,8.5-1.7l103.6-103.6c.6-.6,15.6-14.5,24.8-5.3,1,1,9.5,10.1,1.4,21.9l-76.6,76.6c-3.1,3.1-3.1,8,0,11.1,3.1,3.1,8,3.1,11.1,0l77-77,22.9-22.9c1.7-1.4,15.9-13.1,24.8-4.1,2.1,2.2,12.1,13.9-.2,26.2-6.3,6.3-19.2,19.5-33.5,34.1l-9.1,9.1c-.4.4-.7.8-1,1.3-24.6,25.2-49.6,50.9-50,51.4-3,3.1-2.9,8.1.2,11.1,1.5,1.5,3.5,2.2,5.5,2.2s4.1-.8,5.6-2.4c.5-.5,32.8-33.8,60.2-61.7l13.6-13.6c1.8-1.5,17.2-13.7,26.2-5.1,1.8,2.2,11,14.5-1.5,27.1-18.3,18.3-94.7,91.4-95.5,92.1-3.1,3-3.2,7.9-.2,11.1,1.5,1.6,3.6,2.4,5.7,2.4s3.9-.7,5.4-2.2c.5-.5,38.9-37.2,67.9-65.2,2.3-1.8,11.8-8.2,20.2-.2,2.9,2.8,4.4,5.6,4.4,8.5,0,4.3-3,9.5-8.5,14.8-6.8,6.6-91.4,93.3-95,97-3,3.1-3,8.1.1,11.1,1.5,1.5,3.5,2.2,5.5,2.2s4.1-.8,5.6-2.4c.9-.9,88-90.2,94.7-96.7,8.7-8.4,13.3-17.5,13.2-26.1,0-7.3-3.1-13.9-9.2-19.8Z"></path>
  <g>
    <path class="cls-1" d="M262.5,115.8c-18.5,0-33.6-15.1-33.6-33.6s15.1-33.6,33.6-33.6,33.6,15.1,33.6,33.6-15.1,33.6-33.6,33.6ZM262.5,64.2c-9.9,0-18,8.1-18,18s8.1,18,18,18,18-8.1,18-18-8.1-18-18-18Z"></path>
    <path class="cls-1" d="M440.8,218.9c-15.6,0-28.2-12.7-28.2-28.2s12.7-28.2,28.2-28.2,28.2,12.7,28.2,28.2-12.7,28.2-28.2,28.2ZM440.8,178.1c-6.9,0-12.5,5.6-12.5,12.5s5.6,12.5,12.5,12.5,12.5-5.6,12.5-12.5-5.6-12.5-12.5-12.5Z"></path>
    <path class="cls-1" d="M347.8,95.6c-16.6,0-30-13.5-30-30s13.5-30,30-30,30,13.5,30,30-13.5,30-30,30ZM347.8,51.2c-7.9,0-14.4,6.4-14.4,14.4s6.4,14.4,14.4,14.4,14.4-6.4,14.4-14.4-6.4-14.4-14.4-14.4Z"></path>
    <circle class="cls-1" cx="407.5" cy="124" r="8.4"></circle>
    <circle class="cls-1" cx="306.2" cy="8.4" r="8.4"></circle>
    <circle class="cls-1" cx="340.6" cy="169.7" r="7.2"></circle>
    <circle class="cls-1" cx="406.5" cy="81.5" r="6.1"></circle>
  </g>
  <metadata></metadata>
</svg>
